<?xml version="1.0" standalone="no"?>
<!DOCTYPE svg PUBLIC "-//W3C//DTD SVG 20010904//EN"
 "http://www.w3.org/TR/2001/REC-SVG-20010904/DTD/svg10.dtd">
<svg version="1.0" xmlns="http://www.w3.org/2000/svg"
 width="1200.000000pt" height="129.000000pt" viewBox="0 0 1200.000000 129.000000"
 preserveAspectRatio="xMidYMax meet">

<g transform="translate(0.000000,129.000000) scale(0.100000,-0.100000)"
fill="#000000" stroke="none">
<path d="M0 1037 l0 -156 38 -11 c120 -34 664 -167 877 -214 1516 -336 2945
-515 4525 -567 396 -13 1439 -7 1790 10 1475 73 2782 242 4030 521 170 38 614
146 703 170 l37 11 0 174 c0 96 -2 175 -5 175 -3 0 -99 -25 -213 -56 -519
-139 -1334 -335 -1812 -435 -1025 -215 -1859 -350 -2670 -433 -753 -77 -1448
-87 -2180 -31 -1399 108 -3320 481 -5102 992 -17 5 -18 -7 -18 -150z"/>
</g>
</svg>
